<svg width="21" height="7" viewBox="0 0 21 7" fill="none" xmlns="http://www.w3.org/2000/svg">
<g clip-path="url(#clip0)">
<path d="M-4.5 3.80001C-3.2 4.80001 -1.8 6.00001 1 6.00001C3.8 6.00001 5.2 4.80001 6.5 3.80001C7.6 2.80001 8.6 2.00001 10.7 2.00001C12.8 2.00001 13.7 2.80001 14.9 3.80001C16.2 4.80001 17.6 6.00001 20.4 6.00001C23.2 6.00001 24.6 4.80001 25.9 3.80001L24.5 2.90001C23.4 3.90001 22.4 4.70001 20.3 4.70001C18.2 4.70001 17.3 3.90001 16.1 2.90001C14.9 1.90001 13.4 0.700012 10.7 0.700012C7.9 0.700012 6.5 1.90001 5.2 2.90001C4 3.90001 3.1 4.70001 1 4.70001C-1.1 4.70001 -2 3.90001 -3.2 2.90001L-4.5 3.80001Z" fill="#F4F4F4" stroke="#F4F4F4"/>
</g>
<defs>
<clipPath id="clip0">
<rect width="21" height="7" fill="white"/>
</clipPath>
</defs>
</svg>
