<svg width="27" height="9" viewBox="0 0 27 9" fill="none" xmlns="http://www.w3.org/2000/svg">
<g clip-path="url(#clip0)">
<path d="M-0.144026 2.64498L-3.19543 4.75749L-2.10974 5.59264C-2.04173 5.64495 -1.97281 5.69837 -1.90279 5.75263C-0.631966 6.73746 0.997239 8.00001 3.99997 8.00001C7.00269 8.00001 8.6319 6.73746 9.90272 5.75263C9.97274 5.69837 10.0417 5.64495 10.1097 5.59264L10.1422 5.56759L10.1726 5.53995C10.7183 5.0439 11.1558 4.67761 11.6722 4.41944C12.1686 4.17123 12.7879 4.00001 13.7 4.00001C14.6091 4.00001 15.2008 4.16996 15.6833 4.41592C16.1833 4.67082 16.6052 5.02258 17.1986 5.51724L17.2748 5.58073L17.2903 5.59264C17.3582 5.64489 17.427 5.69824 17.497 5.75243C18.7678 6.73726 20.3972 8.00001 23.4 8.00001C26.4027 8.00001 28.0319 6.73746 29.3027 5.75263C29.3727 5.69837 29.4417 5.64495 29.5097 5.59264L30.6353 4.72677L27.3952 2.64383L26.8273 3.16007C26.2816 3.65612 25.8441 4.02241 25.3278 4.28058C24.8313 4.52879 24.2121 4.70001 23.3 4.70001C22.3909 4.70001 21.7991 4.53006 21.3167 4.28411C20.8167 4.02921 20.3947 3.67745 19.8013 3.18279L19.7402 3.13179C18.4989 2.09739 16.7664 0.700012 13.7 0.700012C10.6972 0.700012 9.06803 1.96257 7.79721 2.9474C7.72719 3.00166 7.65827 3.05507 7.59025 3.10739L7.57478 3.11929L7.49861 3.18278C6.90523 3.67745 6.48328 4.0292 5.98328 4.28411C5.50083 4.53006 4.90907 4.70001 3.99997 4.70001C3.09086 4.70001 2.4991 4.53006 2.01665 4.28411C1.51666 4.02921 1.09471 3.67745 0.501333 3.18279L0.501327 3.18278L-0.144026 2.64498Z" fill="white"/>
</g>
<defs>
<clipPath id="clip0">
<rect width="27" height="9" fill="white"/>
</clipPath>
</defs>
</svg>
